# xmcd
#
# Track frame offsets: 
#        150
#        17825
#        35163
#        57833
#        70190
#        89021
#        115422
#        131174
#        148151
#        167237
#        194032
#        209938
#        233423
#        252842
#
# Disc length: 3568 seconds
#
# Revision: 0
# Processed by: cddbd v1.5.2PL0 Copyright (c) Steve Scherf et al.
# Submitted via: ExactAudioCopy v1.0b2
#
DISCID=e00dee0e
DTITLE=Various Artist - Soul Jams CD1
DYEAR=2006
DGENRE=Soul
TTITLE0=Curtis Mayfield - Move on Up
TTITLE1=Charles Wright and the Watts 103rd Street Rhythm Band - Express 
TTITLE1=Yourself
TTITLE2=Before I Let Go - Before I Let Go
TTITLE3=Jean Knight - Mr Big Stuff
TTITLE4=The Brand New Heavies - Never Stop
TTITLE5=Soul II Soul  feat Caron Wheeler - Keep on Movin'
TTITLE6=PPP - Your Day Is Done
TTITLE7=Erykah Badu - On and On
TTITLE8=D'Angelo - Brown Sugar
TTITLE9=Jack Davey - No More
TTITLE10=Mark DeBarge - Stay with Me
TTITLE11=Patrice Rushen - Remind Me
TTITLE12=Kool and the Gang  - Summer Madness
TTITLE13=Isaac Hayes - The Look of Love
EXTD=
EXTT0=
EXTT1=
EXTT2=
EXTT3=
EXTT4=
EXTT5=
EXTT6=
EXTT7=
EXTT8=
EXTT9=
EXTT10=
EXTT11=
EXTT12=
EXTT13=
PLAYORDER=
